<svg xmlns="http://www.w3.org/2000/svg" viewBox="0 0 303.51 421.1"><defs><style>.cls-1{fill:#010101;}</style></defs><g id="Layer_2" data-name="Layer 2"><g id="Layer_1-2" data-name="Layer 1"><path d="M303.44,210.54c0,14.48-.08,29,.07,43.45,0,2.8-.53,3.66-3.52,3.64-21.16-.14-42.33-.07-63.49-.07-5.38,0-5.66.39-7.91,5.4-7.44,16.59-20.23,26.82-38.34,27.76-25.41,1.31-50.92,1.18-76.33.08-18.5-.81-31.56-11-39.19-27.94-2.24-5-2.56-5.29-8-5.28-21.17,0-42.33,0-63.49.05-2.36,0-3.23-.38-3.22-3q.15-44,0-88.09c0-2.68.9-3,3.23-3,21.26.08,42.53,0,63.79.11,4.08,0,6.22-1.48,7.88-5.26,7.71-17.6,21.38-27.61,40.53-28.18q36.21-1.06,72.47,0c20,.61,33.92,11.23,41.44,29.92a5.14,5.14,0,0,0,5.34,3.45h13.78c17.27,0,34.54.06,51.81-.08,2.74,0,3.25.77,3.23,3.33C303.37,181.37,303.44,196,303.44,210.54Z"/><path class="cls-1" d="M303.45,333.45q0,31.16,0,62.32c0,14.16-10.66,25.13-24.87,25.21-22.86.14-45.72,0-68.57.09-1.74,0-2.37-.28-2.37-2.23q.11-60.52,0-121.06a2.94,2.94,0,0,1,2-3.09c11.58-5.56,20-14.37,25.6-25.83a3.59,3.59,0,0,1,3.79-2.42q30.7.13,61.39,0c2.59,0,3.06.8,3.05,3.2C303.41,290.9,303.45,312.18,303.45,333.45Z"/><path class="cls-1" d="M303.43,87.65c0,21.37,0,42.74.05,64.11,0,2.16-.39,2.91-2.74,2.89q-31-.14-62,0a3.18,3.18,0,0,1-3.37-2.14,54,54,0,0,0-25.73-26.07,3,3,0,0,1-2-3.11q.09-60.52,0-121c0-1.92.55-2.27,2.33-2.26,22.76.06,45.52,0,68.28.06,14.5.07,25.2,11.05,25.2,25.54Q303.42,56.63,303.43,87.65Z"/><path d="M.08,333.61c0-21.38,0-42.76-.06-64.14,0-2.29.5-3,2.94-3q30.71.15,61.4,0a3.57,3.57,0,0,1,3.84,2.38,52.74,52.74,0,0,0,25.58,25.8,3,3,0,0,1,2,3.15q-.09,60.54,0,121.08c0,1.61-.31,2.22-2.09,2.22-23.46-.07-46.93.06-70.39-.12-11.57-.09-22.1-10.45-23-22Q.1,395.81.1,392.65.07,363.13.08,333.61Z"/><path d="M.06,87c0-20.18,0-40.35,0-60.53,0-12.71,6.68-22,18-25.29A28.55,28.55,0,0,1,26.29.08C48.55.09,70.82.13,93.08,0c2.37,0,2.69.75,2.68,2.85q-.09,59.93,0,119.86a3.78,3.78,0,0,1-2.53,4,53.43,53.43,0,0,0-25.07,25.53,3.58,3.58,0,0,1-3.81,2.4q-30.69-.12-61.39,0c-2.4,0-3-.65-3-3C.1,130.12.06,108.54.06,87Z"/><path class="cls-1" d="M198.68,122.49c-5.6-1.4-11-1.5-16.37-1.5q-31.6,0-63.21,0a51.23,51.23,0,0,0-12.49,1.09c-1.92.47-2-.3-1.9-1.7,0-.5,0-1,0-1.5q0-57.7-.06-115.4c0-2.56.41-3.5,3.31-3.49Q152,.18,196,0c2,0,2.7.28,2.69,2.51q-.1,59,0,118.09Z"/><path class="cls-1" d="M104.87,298.68a59.86,59.86,0,0,0,14.86,1.44q31.61,0,63.21,0a62.55,62.55,0,0,0,15.44-1.39,5.51,5.51,0,0,1,.3,3q0,58.14.08,116.29c0,2.42-.46,3.12-3,3.11C166.39,421,137,421,107.67,421c-1.53,0-3,.48-3-2.24q.15-59.34.07-118.69C104.74,299.72,104.81,299.33,104.87,298.68Z"/></g></g></svg>