<svg xmlns="http://www.w3.org/2000/svg" viewBox="0 0 57.11 90.66"><g id="Layer_2" data-name="Layer 2"><g id="Layer_1-2" data-name="Layer 1"><path d="M38.7,1.16a4,4,0,1,0-5.64,5.68,54.53,54.53,0,0,1,.25,77A4,4,0,1,0,39,89.48,62.52,62.52,0,0,0,38.7,1.16Z"/><path d="M21.46,76.05a4,4,0,0,0,6.84,2.81,47.42,47.42,0,0,0-.23-67,4,4,0,0,0-5.64,5.68,39.43,39.43,0,0,1,.19,55.68A4,4,0,0,0,21.46,76.05Z"/><path d="M10.75,65.42a4,4,0,0,0,6.84,2.8,32.32,32.32,0,0,0-.15-45.66,4,4,0,1,0-5.64,5.68,24.31,24.31,0,0,1,.11,34.34A4,4,0,0,0,10.75,65.42Z"/><path d="M6.82,35.93a4,4,0,0,0-5.64,5.68,5.41,5.41,0,0,1,0,7.66h0a4,4,0,0,0,5.68,5.64,13.43,13.43,0,0,0-.06-19h0Z"/></g></g></svg>