<svg xmlns:xlink="http://www.w3.org/1999/xlink" width="134" height="30" xmlns="http://www.w3.org/2000/svg" viewBox="0 0 174 40">
                                    <path d="M7.72,40H.38c-.13,0-.3.06-.37-.08s.1-.23.17-.33l4.38-6.34,6.09-8.81c.92-1.33,1.84-2.65,2.75-4a.57.57,0,0,0,.08-.13c0-.07.13-.12.08-.2s-.14-.05-.21-.05H.38c-.11,0-.26.06-.33-.08s0-.26.12-.37q3.35-4.86,6.71-9.71,3-4.35,6-8.72c.17-.25.34-.51.52-.75A1,1,0,0,1,14.31,0H29c.09,0,.21,0,.26.06s-.07.16-.11.23L21.82,10.94l-6,8.67c-.06.09-.18.17-.13.28s.18.06.28.06H28.86a1.33,1.33,0,0,1,.2,0c.08,0,.18,0,.22.07s0,.15-.08.22l-1.15,1.67-6.33,9.16q-2.46,3.57-4.94,7.13l-1,1.41a.76.76,0,0,1-.69.37Z" fill="#635BFE"></path>
                                    <path d="M132,15.36q0,6.75,0,13.48c0,.3-.08.36-.34.36-1.24,0-2.48,0-3.72,0-.36,0-.36,0-.36-.4s0-1,0-1.51c0-.12.08-.29-.09-.34s-.24.06-.32.19a5.31,5.31,0,0,1-1.63,1.67,6,6,0,0,1-2.65.95,7.13,7.13,0,0,1-4-.63,8.82,8.82,0,0,1-3.94-3.71,11.58,11.58,0,0,1-1.32-7.23,10.12,10.12,0,0,1,3-6.28,7.43,7.43,0,0,1,5.62-2.25,6,6,0,0,1,3.63,1.25A5.17,5.17,0,0,1,127,12.19a2,2,0,0,0,.16.24.2.2,0,0,0,.25.09c.11,0,.07-.15.06-.23l-.21-2.14a4.15,4.15,0,0,1,0-.49q0-3.92,0-7.83c0-.25.06-.32.3-.32,1.37,0,2.73,0,4.1,0,.24,0,.3.07.3.32Q131.95,8.59,132,15.36Zm-4.41,4.52a6.69,6.69,0,0,0-.21-1.87,4.76,4.76,0,0,0-2.92-3.4,4.37,4.37,0,0,0-5.31,1.82,6,6,0,0,0-.37,5.91,4.42,4.42,0,0,0,6.86,1.83A5.3,5.3,0,0,0,127.54,19.88Z" fill="#FFFFFF"></path>
                                    <path d="M135.73,23.92V10.68c0-.42,0-.42.4-.42,1.24,0,2.47,0,3.71,0,.24,0,.31.08.3.33,0,.55,0,1.09,0,1.64,0,.11-.06.26.1.31s.24-.06.32-.18a4.72,4.72,0,0,1,1.05-1.25,5.89,5.89,0,0,1,3.46-1.43,7.43,7.43,0,0,1,4.45,1A9.18,9.18,0,0,1,153.27,15a11.55,11.55,0,0,1,.76,6.84c-.66,3.58-2.51,6.18-5.73,7.46a6.67,6.67,0,0,1-5.76-.33,5,5,0,0,1-1.93-1.8,1.82,1.82,0,0,0-.15-.23c-.06-.07-.15-.06-.24,0s-.07.12-.06.2c.48,3.38.19,6.78.27,10.18,0,.17-.05.23-.21.23H136c-.27,0-.22-.18-.22-.34Zm13.79-3.82a5.74,5.74,0,0,0-2.13-4.93,4.37,4.37,0,0,0-6.24,1.13,6.14,6.14,0,0,0-.48,6,4.42,4.42,0,0,0,6.79,1.92A5.26,5.26,0,0,0,149.52,20.1Z" fill="#FFFFFF"></path>
                                    <path d="M53.09,23.91V10.68c0-.42,0-.42.37-.42,1.23,0,2.46,0,3.69,0,.26,0,.36.06.35.37,0,.52,0,1.05,0,1.57,0,.12-.08.29.09.34s.26-.08.34-.21a4.79,4.79,0,0,1,1-1.16,5.92,5.92,0,0,1,3.61-1.5,7.44,7.44,0,0,1,5.1,1.5,9.47,9.47,0,0,1,2.94,3.72,11.63,11.63,0,0,1,.83,7c-.65,3.58-2.49,6.2-5.71,7.46a6.51,6.51,0,0,1-6.34-.67A4.88,4.88,0,0,1,58,27.25a2.53,2.53,0,0,0-.18-.27.21.21,0,0,0-.24,0c-.1,0-.06.13,0,.2.48,3.38.18,6.79.27,10.18,0,.18-.06.23-.21.23H53.3c-.27,0-.21-.19-.21-.35Zm13.8-4.28a5.52,5.52,0,0,0-2.15-4.47,4.37,4.37,0,0,0-6.22,1.12,6.07,6.07,0,0,0-.37,6.28,4.39,4.39,0,0,0,6.72,1.63A5.61,5.61,0,0,0,66.89,19.63Z" fill="#FFFFFF"></path>
                                    <path d="M104.7,20.89H98.43c-.34,0-.35,0-.29.38a4.78,4.78,0,0,0,7.25,3.33A5.25,5.25,0,0,0,107,22.9c.26-.45.2-.37.57-.17l3.32,1.79c.12.06.25.1.13.3a9.8,9.8,0,0,1-4.39,4.23,9.24,9.24,0,0,1-4.52.72,8.93,8.93,0,0,1-7.67-5.42,11.24,11.24,0,0,1-.54-7.6,9.39,9.39,0,0,1,5-6.27,8.18,8.18,0,0,1,3.94-.83,9.35,9.35,0,0,1,3.33.65,7.64,7.64,0,0,1,3.61,3.1,11,11,0,0,1,1.59,5.51c0,.53,0,1.05,0,1.58,0,.29-.1.41-.4.41C108.87,20.88,106.78,20.89,104.7,20.89Zm-2.11-3.61h3.91c.25,0,.33,0,.26-.34a3.72,3.72,0,0,0-.6-1.38,4.09,4.09,0,0,0-4.31-1.71A4.29,4.29,0,0,0,98.43,17c-.09.27,0,.31.2.3Z" fill="#FFFFFF"></path>
                                    <path d="M167.33,20.89H161c-.24,0-.32.06-.27.32A4.57,4.57,0,0,0,164,25.09,4.63,4.63,0,0,0,168,24.6a4.76,4.76,0,0,0,1.6-1.76c.14-.25.25-.29.5-.15,1.12.63,2.26,1.23,3.39,1.84.1,0,.23.08.12.27a9.71,9.71,0,0,1-4.46,4.28,9.26,9.26,0,0,1-4.47.69,8.9,8.9,0,0,1-4.3-1.42,9,9,0,0,1-3.4-4.09,11.33,11.33,0,0,1-.88-4.93A10.49,10.49,0,0,1,158,13.58a8.81,8.81,0,0,1,8.55-3.87,8,8,0,0,1,6.68,5.23,12.75,12.75,0,0,1,.79,5.55c0,.3-.09.41-.39.41C171.49,20.88,169.41,20.89,167.33,20.89Zm-2.11-3.61h4c.23,0,.28-.06.22-.3a4,4,0,0,0-.33-1,4.13,4.13,0,0,0-4.61-2.17A4.27,4.27,0,0,0,161.07,17c-.11.31,0,.3.21.3Z" fill="#FFFFFF"></path>
                                    <path d="M84.68,20.89h-6.3c-.2,0-.32,0-.27.29a4.57,4.57,0,0,0,3.2,3.91,4.63,4.63,0,0,0,4.07-.49A5,5,0,0,0,87,22.82c.12-.23.23-.27.45-.14,1.13.62,2.26,1.22,3.39,1.83.13.07.25.11.13.33A9.76,9.76,0,0,1,86.59,29a9.07,9.07,0,0,1-4.51.73,8.7,8.7,0,0,1-4.38-1.46,9.09,9.09,0,0,1-3.69-5,11.26,11.26,0,0,1-.08-6.82A9.26,9.26,0,0,1,80.07,10a8.8,8.8,0,0,1,4-.27,8,8,0,0,1,3.6,1.38,8,8,0,0,1,2.69,3.31,12.45,12.45,0,0,1,1,6.16c0,.25-.12.31-.34.31Zm-2.09-3.61h1.12c.93,0,1.86,0,2.79,0,.24,0,.34,0,.25-.34a4.4,4.4,0,0,0-.33-.92,4.1,4.1,0,0,0-4.58-2.17A4.28,4.28,0,0,0,78.42,17c-.09.27,0,.31.2.3Z" fill="#FFFFFF"></path>
                                    <path d="M43.21,29.83a9.14,9.14,0,0,1-5.42-1.66,8.09,8.09,0,0,1-2.66-3.53c-.08-.19,0-.26.12-.33L39,22.56c.16-.08.25,0,.33.13a4.7,4.7,0,0,0,1.22,1.72,3.91,3.91,0,0,0,3.3.89,2.94,2.94,0,0,0,1.51-.61,1.38,1.38,0,0,0,0-2.15,4.36,4.36,0,0,0-1.79-.85c-1.22-.35-2.48-.54-3.69-.94a6.35,6.35,0,0,1-3.41-2.47,4.94,4.94,0,0,1-.75-3.63,5.29,5.29,0,0,1,3.31-4.21,9.35,9.35,0,0,1,6.8-.33A6.39,6.39,0,0,1,49.7,13a8.58,8.58,0,0,1,.47.9c.07.16.06.25-.11.33l-3.67,1.6c-.15.07-.22,0-.28-.11a3.74,3.74,0,0,0-4.87-1.59,2,2,0,0,0-.63.45,1.15,1.15,0,0,0,.2,1.73,6.34,6.34,0,0,0,1.95.83c1.31.37,2.65.62,3.93,1.12a6.09,6.09,0,0,1,3.05,2.33,5.59,5.59,0,0,1,0,6.06A7,7,0,0,1,46,29.37,10.44,10.44,0,0,1,43.21,29.83Z" fill="#FFFFFF"></path>
                                </svg>